<svg width="31" height="30" viewBox="0 0 31 30" fill="none" xmlns="http://www.w3.org/2000/svg">
<path d="M19 11C18.4477 11 18 11.4477 18 12C18 12.5523 18.4477 13 19 13V11ZM22 13C22.5523 13 23 12.5523 23 12C23 11.4477 22.5523 11 22 11V13ZM19 15C18.4477 15 18 15.4477 18 16C18 16.5523 18.4477 17 19 17V15ZM22 17C22.5523 17 23 16.5523 23 16C23 15.4477 22.5523 15 22 15V17ZM16 11C15.4477 11 15 11.4477 15 12C15 12.5523 15.4477 13 16 13V11ZM16.01 13C16.5623 13 17.01 12.5523 17.01 12C17.01 11.4477 16.5623 11 16.01 11V13ZM16 15C15.4477 15 15 15.4477 15 16C15 16.5523 15.4477 17 16 17V15ZM16.01 17C16.5623 17 17.01 16.5523 17.01 16C17.01 15.4477 16.5623 15 16.01 15V17ZM25 7V19H27V7H25ZM24 20H14V22H24V20ZM13 19V7H11V19H13ZM14 6H16V4H14V6ZM22 6H24V4H22V6ZM14 20C13.4477 20 13 19.5523 13 19H11C11 20.6569 12.3431 22 14 22V20ZM25 19C25 19.5523 24.5523 20 24 20V22C25.6569 22 27 20.6569 27 19H25ZM27 7C27 5.34315 25.6569 4 24 4V6C24.5523 6 25 6.44772 25 7H27ZM13 7C13 6.44772 13.4477 6 14 6V4C12.3431 4 11 5.34315 11 7H13ZM19 13H22V11H19V13ZM19 17H22V15H19V17ZM18 4H20V2H18V4ZM20 6H18V8H20V6ZM18 6C17.4477 6 17 5.55228 17 5H15C15 6.65685 16.3431 8 18 8V6ZM21 5C21 5.55228 20.5523 6 20 6V8C21.6569 8 23 6.65685 23 5H21ZM20 4C20.5523 4 21 4.44772 21 5H23C23 3.34315 21.6569 2 20 2V4ZM18 2C16.3431 2 15 3.34315 15 5H17C17 4.44772 17.4477 4 18 4V2ZM16 13H16.01V11H16V13ZM16 17H16.01V15H16V17Z" fill="#F97958"/>
<path fill-rule="evenodd" clip-rule="evenodd" d="M8.05574 5.70703C9.35279 4.43403 11.0762 3.37406 13.1259 3.69085C15.0857 3.99376 16.5221 6.15358 18.3497 7.29807C20.2046 8.45973 22.5097 8.68031 23.8869 10.43C25.3709 12.3154 25.9204 14.6986 25.8288 16.8003C25.7354 18.943 24.7257 20.6927 23.3786 22.0867C21.9853 23.5287 20.2264 24.5608 18.089 24.8099C15.7792 25.0791 13.0169 25.2934 10.9277 23.5378C8.85162 21.7931 9.03743 18.8509 8.09447 16.411C7.34367 14.4683 5.97815 12.6308 5.97121 10.7128C5.96395 8.70631 6.77597 6.96307 8.05574 5.70703Z" fill="#F97958" fill-opacity="0.16"/>
</svg>
