<svg width="31" height="30" viewBox="0 0 31 30" fill="none" xmlns="http://www.w3.org/2000/svg">
<path d="M16 14H22M16 18H22M24 23H14C12.8954 23 12 22.1046 12 21V7C12 5.89543 12.8954 5 14 5H19.5858C19.851 5 20.1054 5.10536 20.2929 5.29289L25.7071 10.7071C25.8946 10.8946 26 11.149 26 11.4142V21C26 22.1046 25.1046 23 24 23Z" stroke="#F97958" stroke-width="2" stroke-linecap="round" stroke-linejoin="round"/>
<path fill-rule="evenodd" clip-rule="evenodd" d="M8.05574 6.69873C9.35279 5.42573 11.0762 4.36576 13.1259 4.68255C15.0857 4.98546 16.5221 7.14528 18.3497 8.28977C20.2046 9.45143 22.5097 9.67201 23.8869 11.4217C25.3709 13.3071 25.9204 15.6903 25.8288 17.792C25.7354 19.9347 24.7257 21.6844 23.3786 23.0784C21.9853 24.5204 20.2264 25.5525 18.089 25.8016C15.7792 26.0708 13.0169 26.2851 10.9277 24.5295C8.85162 22.7848 9.03743 19.8426 8.09447 17.4027C7.34367 15.46 5.97815 13.6225 5.97121 11.7045C5.96395 9.69801 6.77597 7.95477 8.05574 6.69873Z" fill="#F97958" fill-opacity="0.16"/>
</svg>
