<svg width="31" height="30" viewBox="0 0 31 30" fill="none" xmlns="http://www.w3.org/2000/svg">
<path d="M19 8.25278V21.2528M19 8.25278C17.8321 7.47686 16.2465 7 14.5 7C12.7535 7 11.1679 7.47686 10 8.25278V21.2528C11.1679 20.4769 12.7535 20 14.5 20C16.2465 20 17.8321 20.4769 19 21.2528M19 8.25278C20.1679 7.47686 21.7535 7 23.5 7C25.2465 7 26.8321 7.47686 28 8.25278V21.2528C26.8321 20.4769 25.2465 20 23.5 20C21.7535 20 20.1679 20.4769 19 21.2528" stroke="#F97958" stroke-width="2" stroke-linecap="round" stroke-linejoin="round"/>
<path fill-rule="evenodd" clip-rule="evenodd" d="M8.05574 5.70703C9.35279 4.43403 11.0762 3.37406 13.1259 3.69085C15.0857 3.99376 16.5221 6.15358 18.3497 7.29807C20.2046 8.45973 22.5097 8.68031 23.8869 10.43C25.3709 12.3154 25.9204 14.6986 25.8288 16.8003C25.7354 18.943 24.7257 20.6927 23.3786 22.0867C21.9853 23.5287 20.2264 24.5608 18.089 24.8099C15.7792 25.0791 13.0169 25.2934 10.9277 23.5378C8.85162 21.7931 9.03743 18.8509 8.09447 16.411C7.34367 14.4683 5.97815 12.6308 5.97121 10.7128C5.96395 8.70631 6.77597 6.96307 8.05574 5.70703Z" fill="#F97958" fill-opacity="0.16"/>
</svg>
