<svg width="97" height="83" viewBox="0 0 97 83" fill="none" xmlns="http://www.w3.org/2000/svg">
<path fill-rule="evenodd" clip-rule="evenodd" d="M37.4715 17.4374C45.3839 16.461 54.5438 16.74 60.2975 22.2858C65.9432 27.7274 65.141 36.8028 65.6988 44.6447C66.13 50.7072 65.2939 56.5662 63.1398 62.2456C61.0856 67.6617 58.6128 73.2797 53.6918 76.3019C48.9365 79.2223 42.9739 77.1231 37.4715 78.0096C30.4134 79.1468 23.5194 85.1072 16.975 82.2175C10.3864 79.3082 8.63205 70.8749 6.03594 64.129C3.28194 56.9728 -0.899228 49.3993 1.54813 42.1314C3.98922 34.8822 12.0993 31.7786 18.3844 27.4582C24.4579 23.2832 30.1682 18.3387 37.4715 17.4374Z" fill="#E4FFFC"/>
<path d="M43.4753 23.3333V10M70.1419 23.3333V10M40.1419 36.6667H73.4753M33.4753 70H80.1419C83.8238 70 86.8086 67.0152 86.8086 63.3333V23.3333C86.8086 19.6514 83.8238 16.6667 80.1419 16.6667H33.4753C29.7934 16.6667 26.8086 19.6514 26.8086 23.3333V63.3333C26.8086 67.0152 29.7934 70 33.4753 70Z" stroke="#2A9D8F" stroke-width="4" stroke-linecap="round" stroke-linejoin="round"/>
</svg>
