<svg width="96" height="83" viewBox="0 0 96 83" fill="none" xmlns="http://www.w3.org/2000/svg">
<path fill-rule="evenodd" clip-rule="evenodd" d="M36.6629 17.4374C44.5753 16.461 53.7352 16.74 59.4889 22.2858C65.1346 27.7274 64.3324 36.8028 64.8902 44.6447C65.3214 50.7072 64.4853 56.5662 62.3313 62.2456C60.277 67.6617 57.8042 73.2797 52.8832 76.3019C48.1279 79.2223 42.1654 77.1231 36.6629 78.0096C29.6048 79.1468 22.7108 85.1072 16.1664 82.2175C9.57783 79.3082 7.82345 70.8749 5.22734 64.129C2.47334 56.9728 -1.70782 49.3993 0.739541 42.1314C3.18062 34.8822 11.2907 31.7786 17.5758 27.4582C23.6493 23.2832 29.3596 18.3387 36.6629 17.4374Z" fill="#E4FFFC"/>
<path d="M48.5 56.6667L46 66.6667L42.6667 70H69.3333L66 66.6667L63.5 56.6667M26 43.3333H86M32.6667 56.6667H79.3333C83.0152 56.6667 86 53.6819 86 50V16.6667C86 12.9848 83.0152 10 79.3333 10H32.6667C28.9848 10 26 12.9848 26 16.6667V50C26 53.6819 28.9848 56.6667 32.6667 56.6667Z" stroke="#2A9D8F" stroke-width="4" stroke-linecap="round" stroke-linejoin="round"/>
</svg>
