<svg width="92" height="83" viewBox="0 0 92 83" fill="none" xmlns="http://www.w3.org/2000/svg">
<path fill-rule="evenodd" clip-rule="evenodd" d="M29.3303 30.3513C35.6602 29.5671 42.9882 29.7912 47.5911 34.2446C52.1077 38.6144 51.4659 45.9023 51.9122 52.1995C52.2571 57.0679 51.5883 61.7729 49.865 66.3336C48.2216 70.6829 46.2434 75.1943 42.3065 77.6212C38.5023 79.9664 33.7323 78.2807 29.3303 78.9926C23.6839 79.9057 18.1687 84.6922 12.9331 82.3716C7.66226 80.0354 6.25876 73.2631 4.18188 67.846C1.97867 62.0994 -1.36626 56.0176 0.591633 50.1813C2.5445 44.3599 9.03256 41.8677 14.0606 38.3982C18.9194 35.0456 23.4877 31.075 29.3303 30.3513Z" fill="#E4FFFC"/>
<path d="M42.0001 40H62.0001M42.0001 53.3333H62.0001M68.6668 70H35.3334C31.6515 70 28.6667 67.0152 28.6667 63.3333V16.6667C28.6667 12.9848 31.6515 10 35.3334 10H53.9527C54.8368 10 55.6846 10.3512 56.3097 10.9763L74.3571 29.0237C74.9822 29.6488 75.3334 30.4967 75.3334 31.3807V63.3333C75.3334 67.0152 72.3487 70 68.6668 70Z" stroke="#2A9D8F" stroke-width="4" stroke-linecap="round" stroke-linejoin="round"/>
</svg>
