<svg width="85" height="83" viewBox="0 0 85 83" fill="none" xmlns="http://www.w3.org/2000/svg">
<path fill-rule="evenodd" clip-rule="evenodd" d="M32.1505 25.3844C39.0891 24.5263 47.1217 24.7715 52.1672 29.6451C57.118 34.4271 56.4146 42.4025 56.9037 49.2938C57.2819 54.6215 56.5487 59.7703 54.6597 64.7613C52.8583 69.5209 50.6898 74.4579 46.3745 77.1138C42.2045 79.6802 36.9758 77.8354 32.1505 78.6145C25.9611 79.6138 19.9157 84.8518 14.1767 82.3123C8.39902 79.7557 6.86057 72.3446 4.58398 66.4164C2.16893 60.1276 -1.49763 53.4721 0.648521 47.0852C2.78916 40.7147 9.90108 37.9872 15.4126 34.1905C20.7386 30.5216 25.7461 26.1764 32.1505 25.3844Z" fill="#FFEEE9"/>
<path d="M37.2116 56.6667H52.7881M44.9998 10V13.3333M66.213 18.7868L63.856 21.1438M75 39.9998H71.6667M18.3333 39.9998H15M26.1436 21.1438L23.7866 18.7868M33.2147 51.7852C26.706 45.2765 26.706 34.7237 33.2147 28.215C39.7234 21.7062 50.2762 21.7062 56.7849 28.215C63.2937 34.7237 63.2937 45.2765 56.7849 51.7852L54.9613 53.6088C52.8517 55.7185 51.6665 58.5797 51.6665 61.5632V63.3333C51.6665 67.0152 48.6817 70 44.9998 70C41.3179 70 38.3332 67.0152 38.3332 63.3333V61.5632C38.3332 58.5797 37.148 55.7185 35.0384 53.6088L33.2147 51.7852Z" stroke="#F97958" stroke-width="4" stroke-linecap="round" stroke-linejoin="round"/>
</svg>
