<svg width="1920" height="600" viewBox="0 0 1920 600" fill="none" xmlns="http://www.w3.org/2000/svg">
<rect width="1920" height="480" fill="#2A9D8F"/>
<path d="M1920 480C1920 448.174 1907.36 417.652 1884.85 395.147C1862.35 372.643 1831.83 360 1800 360C1768.17 360 1737.65 372.643 1715.15 395.147C1692.64 417.652 1680 448.174 1680 480L1800 480H1920Z" fill="#30AC9D"/>
<circle cx="1579.5" cy="129.5" r="50.5" fill="#30AC9D"/>
<path d="M109 479.5C109 474.181 107.952 468.915 105.917 464.001C103.882 459.088 100.899 454.623 97.1378 450.862C93.3771 447.101 88.9124 444.118 83.9987 442.083C79.085 440.048 73.8185 439 68.5 439C63.1815 439 57.915 440.048 53.0013 442.083C48.0876 444.118 43.6229 447.101 39.8622 450.862C36.1014 454.623 33.1182 459.088 31.0829 464.001C29.0476 468.915 28 474.181 28 479.5L68.5 479.5H109Z" fill="#30AC9D"/>
<circle cx="1111" cy="350" r="40" fill="#30AC9D"/>
<circle cx="661" cy="226" r="26" fill="#30AC9D"/>
<circle cx="513" cy="439" r="18" fill="#30AC9D"/>
<circle cx="1249" cy="112" r="18" fill="#30AC9D"/>
<circle cx="83" cy="79" r="26" fill="#30AC9D"/>
<path d="M1324 480C1375.42 314.97 1459.69 327.121 1495.4 353.825C1548 393.162 1633.3 345.413 1639.53 215.632C1645.76 85.8518 1829.11 184.255 1920 249.68" stroke="#F6F8FC" stroke-opacity="0.4" stroke-width="8"/>
</svg>
