<svg width="85" height="83" viewBox="0 0 85 83" fill="none" xmlns="http://www.w3.org/2000/svg">
<path fill-rule="evenodd" clip-rule="evenodd" d="M32.1505 25.3844C39.0891 24.5263 47.1217 24.7715 52.1672 29.6451C57.118 34.4271 56.4146 42.4025 56.9037 49.2938C57.2819 54.6215 56.5487 59.7703 54.6597 64.7613C52.8583 69.5209 50.6898 74.4579 46.3745 77.1138C42.2045 79.6802 36.9758 77.8354 32.1505 78.6145C25.9611 79.6138 19.9157 84.8518 14.1767 82.3123C8.39902 79.7557 6.86057 72.3446 4.58398 66.4164C2.16893 60.1276 -1.49763 53.4721 0.648521 47.0852C2.78916 40.7147 9.90108 37.9872 15.4126 34.1905C20.7386 30.5216 25.7461 26.1764 32.1505 25.3844Z" fill="#FFEEE9"/>
<path d="M37.5 56.6667L35 66.6667L31.6667 70H58.3333L55 66.6667L52.5 56.6667M15 43.3333H75M21.6667 56.6667H68.3333C72.0152 56.6667 75 53.6819 75 50V16.6667C75 12.9848 72.0152 10 68.3333 10H21.6667C17.9848 10 15 12.9848 15 16.6667V50C15 53.6819 17.9848 56.6667 21.6667 56.6667Z" stroke="#F97958" stroke-width="4" stroke-linecap="round" stroke-linejoin="round"/>
</svg>
