<svg width="93" height="83" viewBox="0 0 93 83" fill="none" xmlns="http://www.w3.org/2000/svg">
<path fill-rule="evenodd" clip-rule="evenodd" d="M30.1389 30.3513C36.4688 29.5671 43.7968 29.7912 48.3997 34.2446C52.9162 38.6144 52.2745 45.9023 52.7208 52.1995C53.0657 57.0679 52.3969 61.7729 50.6736 66.3336C49.0302 70.6829 47.052 75.1943 43.1151 77.6212C39.3109 79.9664 34.5409 78.2807 30.1389 78.9926C24.4924 79.9057 18.9773 84.6922 13.7417 82.3716C8.47086 80.0354 7.06736 73.2631 4.99047 67.846C2.78727 62.0994 -0.557664 56.0176 1.40023 50.1813C3.35309 44.3599 9.84115 41.8677 14.8692 38.3982C19.728 35.0456 24.2963 31.075 30.1389 30.3513Z" fill="#E4FFFC"/>
<path d="M49.4753 10.1831C34.4754 11.8413 22.8086 24.5582 22.8086 40C22.8086 56.5686 36.2401 70 52.8086 70C68.2504 70 80.9674 58.3332 82.6255 43.3333H49.4753V10.1831Z" stroke="#2A9D8F" stroke-width="4" stroke-linecap="round" stroke-linejoin="round"/>
<path d="M81.1013 30H62.8086V11.7077C71.3325 14.7204 78.0884 21.4762 81.1013 30Z" stroke="#2A9D8F" stroke-width="4" stroke-linecap="round" stroke-linejoin="round"/>
</svg>
