<svg width="92" height="83" viewBox="0 0 92 83" fill="none" xmlns="http://www.w3.org/2000/svg">
<path fill-rule="evenodd" clip-rule="evenodd" d="M29.3303 30.3513C35.6602 29.5671 42.9882 29.7912 47.5911 34.2446C52.1077 38.6144 51.4659 45.9023 51.9122 52.1995C52.2571 57.0679 51.5883 61.7729 49.865 66.3336C48.2216 70.6829 46.2434 75.1943 42.3065 77.6212C38.5023 79.9664 33.7323 78.2807 29.3303 78.9926C23.6839 79.9057 18.1687 84.6922 12.9331 82.3716C7.66226 80.0354 6.25876 73.2631 4.18188 67.846C1.97867 62.0994 -1.36626 56.0176 0.591633 50.1813C2.5445 44.3599 9.03256 41.8677 14.0606 38.3982C18.9194 35.0456 23.4877 31.075 29.3303 30.3513Z" fill="#FFEEE9"/>
<path d="M25.3333 13.3334V11.3334H23.3333V13.3334H25.3333ZM78.6667 13.3334H80.6667V11.3334H78.6667V13.3334ZM33.9191 38.5858C33.1381 39.3669 33.1381 40.6332 33.9191 41.4143C34.7002 42.1953 35.9665 42.1953 36.7475 41.4143L33.9191 38.5858ZM45.3333 30L46.7475 28.5858C46.3725 28.2108 45.8638 28 45.3333 28C44.8029 28 44.2942 28.2108 43.9191 28.5858L45.3333 30ZM55.3333 40L53.9191 41.4143C54.2942 41.7893 54.8029 42 55.3333 42C55.8638 42 56.3725 41.7893 56.7475 41.4143L55.3333 40ZM70.0809 28.0809C70.8619 27.2999 70.8619 26.0335 70.0809 25.2525C69.2998 24.4714 68.0335 24.4714 67.2524 25.2525L70.0809 28.0809ZM37.2525 68.5858C36.4714 69.3669 36.4714 70.6332 37.2525 71.4143C38.0335 72.1953 39.2998 72.1953 40.0809 71.4143L37.2525 68.5858ZM52 56.6667L53.4142 55.2525C53.0391 54.8774 52.5304 54.6667 52 54.6667C51.4696 54.6667 50.9609 54.8774 50.5858 55.2525L52 56.6667ZM63.9191 71.4143C64.7002 72.1953 65.9665 72.1953 66.7475 71.4143C67.5286 70.6332 67.5286 69.3669 66.7475 68.5858L63.9191 71.4143ZM22 11.3334C20.8954 11.3334 20 12.2288 20 13.3334C20 14.4379 20.8954 15.3334 22 15.3334V11.3334ZM82 15.3334C83.1046 15.3334 84 14.4379 84 13.3334C84 12.2288 83.1046 11.3334 82 11.3334V15.3334ZM25.3333 15.3334H78.6667V11.3334H25.3333V15.3334ZM76.6667 13.3334V53.3334H80.6667V13.3334H76.6667ZM75.3333 54.6667H28.6667V58.6667H75.3333V54.6667ZM27.3333 53.3334V13.3334H23.3333V53.3334H27.3333ZM28.6667 54.6667C27.9303 54.6667 27.3333 54.0698 27.3333 53.3334H23.3333C23.3333 56.2789 25.7211 58.6667 28.6667 58.6667V54.6667ZM76.6667 53.3334C76.6667 54.0698 76.0697 54.6667 75.3333 54.6667V58.6667C78.2788 58.6667 80.6667 56.2789 80.6667 53.3334H76.6667ZM36.7475 41.4143L46.7475 31.4143L43.9191 28.5858L33.9191 38.5858L36.7475 41.4143ZM43.9191 31.4143L53.9191 41.4143L56.7475 38.5858L46.7475 28.5858L43.9191 31.4143ZM56.7475 41.4143L70.0809 28.0809L67.2524 25.2525L53.9191 38.5858L56.7475 41.4143ZM40.0809 71.4143L53.4142 58.0809L50.5858 55.2525L37.2525 68.5858L40.0809 71.4143ZM50.5858 58.0809L63.9191 71.4143L66.7475 68.5858L53.4142 55.2525L50.5858 58.0809ZM22 15.3334H82V11.3334H22V15.3334Z" fill="#F97958"/>
</svg>
