<svg width="86" height="83" viewBox="0 0 86 83" fill="none" xmlns="http://www.w3.org/2000/svg">
<path fill-rule="evenodd" clip-rule="evenodd" d="M32.9591 25.3844C39.8977 24.5263 47.9303 24.7715 52.9758 29.6451C57.9266 34.4271 57.2232 42.4025 57.7123 49.2938C58.0905 54.6215 57.3573 59.7703 55.4683 64.7613C53.6669 69.5209 51.4984 74.4579 47.1831 77.1138C43.0131 79.6802 37.7844 77.8354 32.9591 78.6145C26.7697 79.6138 20.7242 84.8518 14.9853 82.3123C9.20761 79.7557 7.66916 72.3446 5.39257 66.4164C2.97752 60.1276 -0.689035 53.4721 1.45711 47.0852C3.59775 40.7147 10.7097 37.9872 16.2212 34.1905C21.5472 30.5216 26.5547 26.1764 32.9591 25.3844Z" fill="#E4FFFC"/>
<path d="M34.7548 44.4731C35.4291 43.1272 35.8086 41.6079 35.8086 40C35.8086 38.3921 35.4291 36.8728 34.7548 35.5269M34.7548 44.4731C33.113 47.7503 29.7235 50 25.8086 50C20.2857 50 15.8086 45.5228 15.8086 40C15.8086 34.4772 20.2857 30 25.8086 30C29.7235 30 33.113 32.2497 34.7548 35.5269M34.7548 44.4731L56.8624 55.5269M34.7548 35.5269L56.8624 24.4731M56.8624 24.4731C58.5041 27.7503 61.8936 30 65.8086 30C71.3314 30 75.8086 25.5228 75.8086 20C75.8086 14.4772 71.3314 10 65.8086 10C60.2857 10 55.8086 14.4772 55.8086 20C55.8086 21.6079 56.1881 23.1272 56.8624 24.4731ZM56.8624 55.5269C56.1881 56.8728 55.8086 58.3921 55.8086 60C55.8086 65.5228 60.2857 70 65.8086 70C71.3314 70 75.8086 65.5228 75.8086 60C75.8086 54.4772 71.3314 50 65.8086 50C61.8936 50 58.5041 52.2497 56.8624 55.5269Z" stroke="#2A9D8F" stroke-width="4" stroke-linecap="round" stroke-linejoin="round"/>
</svg>
