<svg width="273" height="46" viewBox="0 0 273 46" fill="none" xmlns="http://www.w3.org/2000/svg">
<path d="M59.879 32.4726V15.8342H53.4595V14H68.4996V15.8342H62.0538V32.4726H59.879Z" fill="#111827"/>
<path d="M84.2644 14H86.3868V32.4726H84.2644V24.0093H73.207V32.4726H71.0846V14H73.207V22.1751H84.2644V14Z" fill="#111827"/>
<path d="M90.9411 32.4726V14H102.627V15.7818H93.0635V22.2013H102.103V23.9831H93.0635V30.6909H102.627V32.4726H90.9411Z" fill="#111827"/>
<path d="M116.664 32.9443C115.266 32.9443 113.921 32.7609 112.628 32.394C111.336 32.0097 110.261 31.4857 109.406 30.8219L110.716 27.9134C112.497 29.1537 114.498 29.7738 116.716 29.7738C117.869 29.7738 118.751 29.5904 119.362 29.2236C119.991 28.8393 120.306 28.3152 120.306 27.6514C120.306 27.0575 120.017 26.5946 119.441 26.2627C118.882 25.9308 117.878 25.6076 116.428 25.2932C114.803 24.9613 113.502 24.5595 112.524 24.0879C111.563 23.6163 110.855 23.0398 110.401 22.3585C109.965 21.6598 109.746 20.8039 109.746 19.7907C109.746 18.6727 110.052 17.6771 110.663 16.8036C111.292 15.9302 112.165 15.249 113.283 14.7599C114.401 14.2533 115.694 14 117.161 14C118.472 14 119.729 14.1922 120.935 14.5765C122.157 14.9608 123.127 15.4761 123.843 16.1224L122.533 19.0308C120.838 17.7906 119.057 17.1705 117.188 17.1705C116.122 17.1705 115.284 17.3801 114.672 17.7993C114.061 18.2011 113.755 18.7601 113.755 19.4763C113.755 19.8955 113.869 20.2449 114.096 20.5244C114.34 20.7864 114.733 21.0222 115.275 21.2318C115.834 21.4415 116.62 21.6598 117.633 21.8869C120.009 22.4109 121.712 23.0835 122.743 23.9045C123.791 24.7255 124.315 25.8609 124.315 27.3108C124.315 29.0576 123.642 30.4376 122.297 31.4508C120.952 32.4464 119.074 32.9443 116.664 32.9443Z" fill="#2A9D8F"/>
<path d="M135.093 32.9443C132.508 32.9443 130.534 32.2805 129.172 30.9529C127.827 29.6079 127.154 27.6514 127.154 25.0836V14.2358H131.163V25.267C131.163 26.7343 131.495 27.8523 132.159 28.6209C132.84 29.3895 133.818 29.7738 135.093 29.7738C136.369 29.7738 137.347 29.3895 138.028 28.6209C138.709 27.8348 139.05 26.7169 139.05 25.267V14.2358H143.059V25.0836C143.059 27.6339 142.378 29.5816 141.015 30.9267C139.653 32.2718 137.679 32.9443 135.093 32.9443Z" fill="#2A9D8F"/>
<path d="M146.629 14.2358H155.119C157.128 14.2358 158.691 14.7424 159.809 15.7556C160.927 16.7687 161.486 18.1836 161.486 20.0003C161.486 21.817 160.927 23.232 159.809 24.2451C158.691 25.2583 157.128 25.7648 155.119 25.7648H150.717V32.7085H146.629V14.2358ZM154.595 22.673C156.638 22.673 157.66 21.7908 157.66 20.0265C157.66 19.1182 157.407 18.4457 156.901 18.009C156.394 17.5723 155.625 17.3539 154.595 17.3539H150.717V22.673H154.595Z" fill="#2A9D8F"/>
<path d="M164.132 32.7085V14.2358H176.866V17.4063H168.114V21.7297H176.342V24.9002H168.114V29.538H176.866V32.7085H164.132Z" fill="#2A9D8F"/>
<path d="M195.699 32.7085H191.245L188.048 26.8129C187.786 26.3588 187.472 26.0356 187.105 25.8435C186.738 25.6338 186.275 25.529 185.716 25.529H183.699V32.7085H179.664V14.2358H188.153C190.319 14.2358 191.952 14.7162 193.053 15.6769C194.171 16.6202 194.73 17.9915 194.73 19.7907C194.73 21.1882 194.337 22.3585 193.551 23.3018C192.782 24.2451 191.69 24.8652 190.276 25.1622C191.236 25.4067 192.049 26.0967 192.712 27.2322L195.699 32.7085ZM187.55 22.4372C188.721 22.4372 189.568 22.2363 190.092 21.8345C190.616 21.4153 190.878 20.7689 190.878 19.8955C190.878 19.0046 190.616 18.3583 190.092 17.9566C189.568 17.5548 188.721 17.3539 187.55 17.3539H183.646V22.4372H187.55Z" fill="#2A9D8F"/>
<path d="M202.649 32.4726V14H215.016V16.6726H205.95V21.7559H214.492V24.4023H205.95V29.8H215.016V32.4726H202.649Z" fill="#111827"/>
<path d="M226.52 23.0922L233.542 32.4726H229.612L224.607 25.5552L219.576 32.4726H215.646L222.694 23.066L215.908 14H219.838L224.607 20.6292L229.402 14H233.332L226.52 23.0922Z" fill="#111827"/>
<path d="M249.038 32.4726L247.178 28.1493H238.191L236.33 32.4726H232.924L241.283 14H244.034L252.392 32.4726H249.038ZM239.291 25.529H246.051L242.671 17.6683L239.291 25.529Z" fill="#111827"/>
<path d="M269.743 14H272.39V32.4726H269.403V20.2624L264.529 29.4856H262.276L257.376 20.3934L257.402 32.4726H254.415V14H257.087L263.428 26.0793L269.743 14Z" fill="#111827"/>
<path d="M22.3784 11.6606V35.9038C20.2004 34.4569 17.2435 33.5676 13.9865 33.5676C10.7295 33.5676 7.77257 34.4569 5.5946 35.9038V11.6606C7.77257 10.2136 10.7295 9.32434 13.9865 9.32434C17.2435 9.32434 20.2004 10.2136 22.3784 11.6606ZM22.3784 11.6606C24.5564 10.2136 27.5133 9.32434 30.7703 9.32434C34.0273 9.32434 36.9842 10.2136 39.1622 11.6606V21.7568" stroke="#111827" stroke-width="2" stroke-linecap="round" stroke-linejoin="round"/>
<path d="M39.1621 36.6757L37.09 41.8559L32.9459 30.4595L44.3423 34.6036L39.1621 36.6757ZM39.1621 36.6757L44.3423 41.8559M31.0688 23.4543L31.8733 26.4565M28.9429 29.3869L25.9407 28.5825M38.074 25.3314L35.8762 27.5292M30.0156 33.3898L27.8178 35.5875" stroke="#111827" stroke-width="2" stroke-linecap="round" stroke-linejoin="round"/>
</svg>
